<svg width="48" height="30" viewBox="0 0 48 30" fill="none" xmlns="http://www.w3.org/2000/svg">
<path fill-rule="evenodd" clip-rule="evenodd" d="M2.98611 26.4989C2.92732 26.0796 2.52682 25.7603 2.06705 25.7603C1.23715 25.7603 0.924365 26.4691 0.924365 27.2082C0.924365 27.9108 1.23715 28.6201 2.06705 28.6201C2.63285 28.6201 2.95093 28.2306 3.0213 27.6747H3.91674C3.82277 28.7264 3.09792 29.4001 2.06705 29.4001C0.765324 29.4001 0 28.4249 0 27.2082C0 25.9556 0.765324 24.9799 2.06705 24.9799C2.9919 24.9799 3.76975 25.5237 3.88108 26.4989H2.98611Z" fill="#E6372A"/>
<mask id="mask0_2190_52279" style="mask-type:luminance" maskUnits="userSpaceOnUse" x="0" y="0" width="48" height="30">
<path fill-rule="evenodd" clip-rule="evenodd" d="M0 29.4H48V0.599854H0V29.4Z" fill="white"/>
</mask>
<g mask="url(#mask0_2190_52279)">
<path fill-rule="evenodd" clip-rule="evenodd" d="M4.54688 29.2995H5.47172V25.0808H4.54688V29.2995Z" fill="#E6372A"/>
<path fill-rule="evenodd" clip-rule="evenodd" d="M6.2832 25.0808H7.20227L8.95702 27.9112H8.96907V25.0808H9.83512V29.2995H8.91027L7.16082 26.4754H7.14925V29.2995H6.2832V25.0808Z" fill="#E6372A"/>
<path fill-rule="evenodd" clip-rule="evenodd" d="M10.6484 25.0808H13.7936V25.8608H11.5733V26.7648H13.6109V27.4857H11.5733V28.5196H13.8408V29.2995H10.6484V25.0808Z" fill="#E6372A"/>
<path fill-rule="evenodd" clip-rule="evenodd" d="M14.4648 25.0808H15.7666L16.7502 27.9819H16.7618L17.6924 25.0808H18.9946V29.2995H18.1286V26.3099H18.1165L17.0856 29.2995H16.3729L15.3425 26.3397H15.3309V29.2995H14.4648V25.0808Z" fill="#E6372A"/>
<path fill-rule="evenodd" clip-rule="evenodd" d="M20.8653 27.6686H21.9549L21.4248 26.1202H21.4132L20.8653 27.6686ZM20.9536 25.0802H21.9021L23.4747 29.2989H22.5146L22.1965 28.3593H20.624L20.2943 29.2989H19.3574L20.9536 25.0802Z" fill="#E6372A"/>
<path fill-rule="evenodd" clip-rule="evenodd" d="M28.5697 26.357C28.5345 26.1955 28.4762 26.0507 28.3962 25.9228C28.3153 25.7949 28.2174 25.6872 28.1013 25.6006C27.9856 25.5141 27.8579 25.4482 27.7181 25.403C27.5788 25.3573 27.4328 25.3347 27.2796 25.3347C27.001 25.3347 26.7615 25.3881 26.5615 25.4943C26.3605 25.6006 26.1966 25.7415 26.0694 25.917C25.9417 26.0921 25.8477 26.2902 25.7865 26.5104C25.7258 26.7312 25.6954 26.9577 25.6954 27.1904C25.6954 27.4183 25.7258 27.6443 25.7865 27.8665C25.8477 28.0892 25.9417 28.2882 26.0694 28.4638C26.1966 28.6388 26.3605 28.7797 26.5615 28.886C26.7615 28.9922 27.001 29.0451 27.2796 29.0451C27.4762 29.0451 27.6531 29.0105 27.8097 28.9393C27.9668 28.8687 28.1022 28.7715 28.2165 28.6499C28.3302 28.5272 28.4222 28.3844 28.4931 28.2214C28.5639 28.0579 28.6088 27.8814 28.6285 27.6924H29.029C29.002 27.9521 28.9408 28.1868 28.8464 28.3955C28.7524 28.6042 28.6304 28.7816 28.4815 28.9273C28.3321 29.073 28.1562 29.1856 27.9543 29.2639C27.7519 29.3428 27.5273 29.3822 27.2796 29.3822C26.9499 29.3822 26.6603 29.3221 26.4111 29.2024C26.1615 29.0817 25.9547 28.9216 25.7899 28.7205C25.6246 28.5195 25.5012 28.2873 25.4188 28.0233C25.3359 27.7593 25.2949 27.4818 25.2949 27.1904C25.2949 26.8985 25.3359 26.621 25.4188 26.357C25.5012 26.093 25.6246 25.8598 25.7899 25.6569C25.9547 25.454 26.1615 25.2924 26.4111 25.1722C26.6603 25.0524 26.9499 24.9923 27.2796 24.9923C27.48 24.9923 27.6752 25.0216 27.8661 25.0808C28.056 25.1395 28.229 25.2275 28.3842 25.3438C28.5394 25.4597 28.669 25.6025 28.7726 25.7723C28.8772 25.9416 28.9427 26.1363 28.9702 26.357H28.5697Z" fill="#E6372A"/>
<path fill-rule="evenodd" clip-rule="evenodd" d="M29.6406 25.0808H30.0411V28.9572H32.3973V29.2995H29.6406V25.0808Z" fill="#E6372A"/>
<path fill-rule="evenodd" clip-rule="evenodd" d="M32.7637 25.0808H33.1642V27.6925C33.1642 27.9367 33.1916 28.1445 33.2466 28.3157C33.3015 28.4873 33.382 28.6273 33.488 28.7355C33.5941 28.8437 33.7237 28.9225 33.8765 28.9721C34.0302 29.0211 34.2028 29.0456 34.395 29.0456C34.5917 29.0456 34.7661 29.0211 34.9194 28.9721C35.0727 28.9225 35.2023 28.8437 35.3083 28.7355C35.4144 28.6273 35.4944 28.4873 35.5498 28.3157C35.6047 28.1445 35.6322 27.9367 35.6322 27.6925V25.0808H36.0327V27.7814C36.0327 27.9978 36.0023 28.2036 35.9411 28.3984C35.8804 28.5936 35.784 28.7638 35.6524 28.9095C35.5213 29.0553 35.3527 29.1707 35.1459 29.2553C34.9401 29.3399 34.6895 29.3822 34.395 29.3822C34.1044 29.3822 33.8562 29.3399 33.65 29.2553C33.4437 29.1707 33.275 29.0553 33.1434 28.9095C33.0124 28.7638 32.916 28.5936 32.8548 28.3984C32.794 28.2036 32.7637 27.9978 32.7637 27.7814V25.0808Z" fill="#E6372A"/>
<path fill-rule="evenodd" clip-rule="evenodd" d="M37.2314 28.9359H38.6098C38.7587 28.9359 38.9004 28.9229 39.0334 28.8974C39.1669 28.8714 39.285 28.8257 39.3871 28.7584C39.4893 28.6916 39.5698 28.6016 39.6286 28.4901C39.6874 28.3776 39.7168 28.2367 39.7168 28.0674C39.7168 27.7952 39.6218 27.5918 39.4315 27.4557C39.2406 27.3196 38.9669 27.2518 38.6098 27.2518H37.2314V28.9359ZM37.2383 26.9302H38.6167C38.7776 26.9302 38.9169 26.911 39.035 26.874C39.1526 26.836 39.2509 26.7855 39.329 26.7201C39.408 26.6552 39.4668 26.5792 39.5058 26.4927C39.5454 26.4061 39.5646 26.3133 39.5646 26.2147C39.5646 25.6872 39.249 25.4232 38.6167 25.4232H37.2383V26.9302ZM36.8379 25.0806H38.6167C38.7931 25.0806 38.9633 25.0974 39.1262 25.1311C39.289 25.1642 39.4327 25.2215 39.556 25.3023C39.6799 25.383 39.7792 25.4893 39.8534 25.6216C39.9281 25.7533 39.9652 25.9178 39.9652 26.1145C39.9652 26.2251 39.9479 26.3323 39.9122 26.4366C39.877 26.541 39.8274 26.6357 39.7623 26.7204C39.6977 26.805 39.6206 26.8771 39.5324 26.9363C39.4442 26.9949 39.345 27.0363 39.2351 27.0603V27.0724C39.5059 27.107 39.7218 27.219 39.8828 27.4061C40.0443 27.5931 40.1243 27.8244 40.1243 28.1C40.1243 28.1673 40.1185 28.2428 40.1069 28.3274C40.0949 28.4126 40.0712 28.4991 40.0361 28.5876C40.0009 28.6761 39.9498 28.7636 39.8828 28.8506C39.8163 28.9372 39.7271 29.0127 39.6153 29.0781C39.503 29.143 39.3657 29.1964 39.2028 29.2377C39.0399 29.2791 38.8447 29.2998 38.6167 29.2998H36.8379V25.0806Z" fill="#E6372A"/>
<path fill-rule="evenodd" clip-rule="evenodd" d="M44.5729 2.84737L43.9285 1.02197C43.8114 0.692566 43.4504 0.51897 43.1184 0.636785C42.7892 0.751714 42.6152 1.11381 42.7314 1.44273L43.4109 3.36672L44.2268 3.82788" fill="#E6372A"/>
<path fill-rule="evenodd" clip-rule="evenodd" d="M45.7337 3.36696L46.4133 1.44345C46.5294 1.11405 46.3555 0.752434 46.0253 0.637024C45.6957 0.519209 45.3328 0.692806 45.2171 1.02269L44.5723 2.84761L44.9178 3.82812" fill="#EC6F29"/>
<path fill-rule="evenodd" clip-rule="evenodd" d="M47.9173 2.85854C47.7443 2.55511 47.3573 2.44883 47.0527 2.62099L45.7351 3.36683L45.3789 4.37763L46.0671 4.63538L47.6787 3.72171C47.9833 3.55004 48.0903 3.16294 47.9173 2.85854Z" fill="#E6372A"/>
<path fill-rule="evenodd" clip-rule="evenodd" d="M45.207 5.66505L46.5888 6.18103C46.6625 6.20892 46.7377 6.2219 46.8109 6.2219C47.0688 6.2219 47.3093 6.06514 47.4057 5.81075C47.5285 5.4828 47.3618 5.11829 47.0336 4.99567L46.0659 4.63501L45.207 5.1207" fill="#EC6F29"/>
<path fill-rule="evenodd" clip-rule="evenodd" d="M43.9375 5.66529V6.66504C43.9375 7.01415 44.2223 7.29691 44.5727 7.29691C44.9236 7.29691 45.2069 7.01415 45.2069 6.66504V5.66529L44.5727 5.42822" fill="#E6372A"/>
<path fill-rule="evenodd" clip-rule="evenodd" d="M43.0791 4.63525L42.1113 4.99639C41.7827 5.11853 41.6169 5.48352 41.7398 5.811C41.8352 6.06538 42.0771 6.22167 42.3335 6.22167C42.4077 6.22167 42.4829 6.20916 42.5557 6.18127L43.9379 5.66529V5.12046" fill="#E6372A"/>
<path fill-rule="evenodd" clip-rule="evenodd" d="M43.4112 3.36668L42.0941 2.62132C41.789 2.44869 41.402 2.55496 41.2285 2.85839C41.0564 3.16327 41.1639 3.54989 41.4685 3.72157L43.0792 4.63475L43.7674 4.377" fill="#EC6F29"/>
<path fill-rule="evenodd" clip-rule="evenodd" d="M20.6049 22.961C22.8402 22.961 24.8773 22.018 26.3203 20.5292C27.2871 19.5376 28.0027 18.2897 28.3729 16.9034L30.8693 21.5847C31.2573 22.3123 32.013 22.7686 32.8381 22.7686C33.6641 22.7686 34.4198 22.3123 34.8073 21.5847L40.9082 10.1499C41.488 9.06124 41.074 7.71239 39.9829 7.13389C38.8922 6.5554 37.5365 6.96799 36.9568 8.05621L33.0222 15.705L32.8381 16.3331L32.6554 15.705L28.7194 8.05621C28.1411 6.96799 26.7854 6.5554 25.6947 7.13389C24.6036 7.71239 24.1896 9.06124 24.7704 10.1499L26.2398 12.9068H21.7042C20.6767 12.9068 19.8425 13.7637 19.8425 14.8221C19.8425 15.8796 20.6767 16.7365 21.7042 16.7365H23.9467C23.3428 17.6646 22.3158 18.5653 20.5982 18.5653C19.6015 18.5629 18.7138 18.1585 18.0381 17.4694C17.3682 16.7769 16.9465 15.8233 16.9455 14.7423C16.9422 12.8674 18.2318 11.3502 19.8386 11.0021C21.0261 10.739 21.7756 9.56568 21.5139 8.3808C21.3577 7.68113 20.8849 7.13437 20.2796 6.85739C19.402 6.47461 18.321 6.85739 18.321 6.85739C14.9407 7.87252 12.542 11.0405 12.5401 14.7423C12.5401 15.2203 12.582 15.6887 12.6596 16.1465C11.9546 17.3059 10.6268 18.761 8.40456 18.761C6.2686 18.7576 4.51047 17.0116 4.50903 14.8221C4.51047 12.8765 5.89654 11.2819 7.70189 10.9463C7.70189 10.9463 8.15733 10.8588 8.88844 10.7972C9.59159 10.7385 10.6051 9.91865 10.6051 8.68472C10.6051 7.47243 9.62002 6.49048 8.40456 6.49048C3.80732 6.49384 0.117568 10.2336 0.109375 14.8221C0.117568 19.4087 3.80732 23.1495 8.40456 23.1524C10.9073 23.1509 13.1392 22.0415 14.6558 20.2907C14.6558 20.2907 16.787 22.961 20.6049 22.961Z" fill="#E6372A"/>
</g>
</svg>
