<svg
    width="24"
    height="24"
    viewBox="0 0 24 24"
    fill="none"
    xmlns="http://www.w3.org/2000/svg"
>
    <path
    fill-rule="evenodd"
    clip-rule="evenodd"
    d="M10.6667 2.66667C6.24839 2.66667 2.66667 6.24839 2.66667 10.6667C2.66667 15.0849 6.24839 18.6667 10.6667 18.6667C15.0849 18.6667 18.6667 15.0849 18.6667 10.6667C18.6667 6.24839 15.0849 2.66667 10.6667 2.66667ZM0 10.6667C0 4.77563 4.77563 0 10.6667 0C16.5577 0 21.3333 4.77563 21.3333 10.6667C21.3333 13.1316 20.4972 15.4013 19.0931 17.2075L23.6095 21.7239C24.1302 22.2446 24.1302 23.0888 23.6095 23.6095C23.0888 24.1302 22.2446 24.1302 21.7239 23.6095L17.2075 19.0931C15.4013 20.4972 13.1316 21.3333 10.6667 21.3333C4.77563 21.3333 0 16.5577 0 10.6667Z"
    fill="white"
    />
</svg>