<svg width="40" height="40" viewBox="0 0 40 40" fill="none" xmlns="http://www.w3.org/2000/svg">
          <path fill-rule="evenodd" clip-rule="evenodd" d="M5 20.0754C5 27.5377 10.4 33.7186 17.525 35L17.6136 34.9271C17.6091 34.9263 17.6046 34.9255 17.6 34.9247V24.2965H13.85V20.0754H17.6V16.7588C17.6 12.99 20 10.8794 23.45 10.8794C24.5 10.8794 25.7 11.0302 26.75 11.1809V15.0252H24.8C23 15.0252 22.55 15.9297 22.55 17.1357V20.0754H26.525L25.85 24.2965H22.55V34.9247C22.5044 34.933 22.4587 34.9411 22.413 34.949L22.475 35C29.6 33.7186 35 27.5377 35 20.0754C35 11.7839 28.25 5 20 5C11.75 5 5 11.7839 5 20.0754Z" fill="white"></path>
        </svg>