<svg width="40" height="40" viewBox="0 0 40 40" fill="none" xmlns="http://www.w3.org/2000/svg">
          <path d="M26.9231 5H13.0769C10.9355 5.00229 8.88243 5.85399 7.36821 7.36821C5.85399 8.88243 5.00229 10.9355 5 13.0769V26.9231C5.00229 29.0645 5.85399 31.1176 7.36821 32.6318C8.88243 34.146 10.9355 34.9977 13.0769 35H26.9231C29.0645 34.9977 31.1176 34.146 32.6318 32.6318C34.146 31.1176 34.9977 29.0645 35 26.9231V13.0769C34.9977 10.9355 34.146 8.88243 32.6318 7.36821C31.1176 5.85399 29.0645 5.00229 26.9231 5ZM20 26.9231C18.6307 26.9231 17.2922 26.517 16.1537 25.7563C15.0153 24.9956 14.1279 23.9144 13.6039 22.6493C13.0799 21.3843 12.9428 19.9923 13.2099 18.6494C13.4771 17.3064 14.1364 16.0729 15.1046 15.1046C16.0729 14.1364 17.3064 13.4771 18.6494 13.2099C19.9923 12.9428 21.3843 13.0799 22.6493 13.6039C23.9144 14.1279 24.9956 15.0153 25.7563 16.1537C26.517 17.2922 26.9231 18.6307 26.9231 20C26.9212 21.8355 26.1912 23.5953 24.8932 24.8932C23.5953 26.1912 21.8355 26.9212 20 26.9231ZM28.6538 13.0769C28.3115 13.0769 27.9769 12.9754 27.6923 12.7852C27.4077 12.5951 27.1858 12.3247 27.0548 12.0085C26.9238 11.6922 26.8896 11.3442 26.9563 11.0085C27.0231 10.6728 27.188 10.3644 27.43 10.1223C27.6721 9.88026 27.9805 9.71542 28.3162 9.64864C28.6519 9.58186 28.9999 9.61613 29.3162 9.74713C29.6324 9.87813 29.9027 10.1 30.0929 10.3846C30.2831 10.6692 30.3846 11.0038 30.3846 11.3462C30.3846 11.8052 30.2023 12.2454 29.8777 12.57C29.5531 12.8946 29.1129 13.0769 28.6538 13.0769ZM24.6154 20C24.6154 20.9128 24.3447 21.8052 23.8376 22.5642C23.3304 23.3232 22.6096 23.9147 21.7662 24.2641C20.9229 24.6134 19.9949 24.7048 19.0996 24.5267C18.2043 24.3486 17.3819 23.909 16.7364 23.2636C16.091 22.6181 15.6514 21.7957 15.4733 20.9004C15.2952 20.0051 15.3866 19.0771 15.7359 18.2338C16.0853 17.3904 16.6768 16.6696 17.4358 16.1624C18.1948 15.6553 19.0872 15.3846 20 15.3846C21.2241 15.3846 22.398 15.8709 23.2636 16.7364C24.1291 17.602 24.6154 18.7759 24.6154 20Z" fill="white"></path>
        </svg>