<svg width="39" height="38" viewBox="0 0 39 38" fill="none" xmlns="http://www.w3.org/2000/svg">
          <path d="M26.8529 9.215C25.7706 7.9794 25.1741 6.3926 25.1746 4.75H20.2821V24.3833C20.2443 25.4458 19.7958 26.4521 19.0309 27.1905C18.266 27.9288 17.2444 28.3415 16.1812 28.3417C13.9329 28.3417 12.0646 26.505 12.0646 24.225C12.0646 21.5017 14.6929 19.4592 17.4004 20.2983V15.295C11.9379 14.5667 7.15625 18.81 7.15625 24.225C7.15625 29.4975 11.5263 33.25 16.1654 33.25C21.1371 33.25 25.1746 29.2125 25.1746 24.225V14.2658C27.1585 15.6906 29.5404 16.455 31.9829 16.4508V11.5583C31.9829 11.5583 29.0063 11.7008 26.8529 9.215Z" fill="white"></path>
        </svg>