<svg width="40" height="40" viewBox="0 0 40 40" fill="none" xmlns="http://www.w3.org/2000/svg">
          <path fill-rule="evenodd" clip-rule="evenodd" d="M31.7204 8.98048C33.0119 9.33718 34.027 10.3843 34.3727 11.7168C34.9975 14.1296 35 19.1667 35 19.1667C35 19.1667 35 24.2037 34.3727 26.6165C34.027 27.949 33.0119 28.9962 31.7204 29.3528C29.3818 30 19.9999 30 19.9999 30C19.9999 30 10.6182 30 8.27954 29.3528C6.98798 28.9962 5.973 27.949 5.62726 26.6165C5 24.2037 5 19.1667 5 19.1667C5 19.1667 5 14.1296 5.62726 11.7168C5.973 10.3843 6.98798 9.33718 8.27954 8.98048C10.6182 8.33334 19.9999 8.33334 19.9999 8.33334C19.9999 8.33334 29.3818 8.33334 31.7204 8.98048ZM24.791 19.1671L16.9971 23.8092V14.5249L24.791 19.1671Z" fill="white"></path>
        </svg>